<?xml version="1.0" encoding="UTF-8" standalone="no"?>
<svg
   xmlns:dc="http://purl.org/dc/elements/1.1/"
   xmlns:cc="http://creativecommons.org/ns#"
   xmlns:rdf="http://www.w3.org/1999/02/22-rdf-syntax-ns#"
   xmlns:svg="http://www.w3.org/2000/svg"
   xmlns="http://www.w3.org/2000/svg"
   version="1.1"
   id="svg2"
   xml:space="preserve"
   width="1755.64"
   height="606.3147"
   viewBox="0 0 1755.64 606.3147"><metadata
     id="metadata8"><rdf:RDF><cc:Work
         rdf:about=""><dc:format>image/svg+xml</dc:format><dc:type
           rdf:resource="http://purl.org/dc/dcmitype/StillImage" /></cc:Work></rdf:RDF></metadata><defs
     id="defs6"><clipPath
       clipPathUnits="userSpaceOnUse"
       id="clipPath24"><path
         d="M 0,454.736 H 1316.732 V 0 H 0 Z"
         id="path22" /></clipPath></defs><g
     id="g10"
     transform="matrix(1.3333333,0,0,-1.3333333,0,606.31467)"><g
       id="g12"
       transform="translate(341.5181,198.5859)"><path
         d="m 0,0 v 56.693 28.348 28.346 H -28.346 V 85.041 h -28.347 v 28.346 H -85.039 V 85.041 h -85.04 v 28.346 h -28.346 V 85.041 56.693 0 h 28.346 v 56.693 h 85.04 V 0 h 28.346 v 56.693 h 28.347 l 0,-56.693 z m -113.386,28.346 h -28.346 V 0 h 28.346 z"
         style="fill:#231f20;fill-opacity:1;fill-rule:nonzero;stroke:none"
         id="path14" /></g><path
       d="m 341.518,170.24 h -28.347 v -28.348 h 28.347 z m -85.04,-28.347 h 28.346 v 28.348 h -28.346 z m -56.692,0 h 28.346 v 28.348 h -28.346 z m -56.693,0 h 28.346 v 28.348 h -28.346 z"
       style="fill:#231f20;fill-opacity:1;fill-rule:nonzero;stroke:none"
       id="path16" /><g
       id="g18"><g
         id="g20"
         clip-path="url(#clipPath24)"><g
           id="g26"
           transform="translate(398.2109,198.5781)"><path
             d="m 0,0 h 34.553 c 14.691,0 31.968,4.113 31.968,23.742 0,9.99 -5.641,15.865 -16.572,18.098 v 0.236 c 9.168,3.055 14.456,8.815 14.456,19.156 0,14.106 -11.4,20.805 -26.678,20.805 H 0 Z m 21.86,34.789 h 6.699 c 7.522,0 16.102,-0.822 16.102,-9.754 0,-8.346 -8.345,-9.521 -16.337,-9.521 H 21.86 Z m 0,31.734 h 6.347 c 7.287,0 14.338,-0.705 14.338,-8.228 0,-6.934 -7.404,-8.697 -14.573,-8.697 H 21.86 Z M 84.242,0 h 21.861 v 32.439 h 4.583 c 8.11,0 10.93,-3.527 15.396,-17.63 L 130.783,0 h 22.801 l -7.992,22.33 c -4.114,9.99 -4.584,16.219 -11.635,18.1 v 0.236 c 10.577,2.467 15.748,9.754 15.748,20.686 0,14.103 -11.87,20.685 -26.443,20.685 h -39.02 z m 21.861,66.523 h 5.758 c 8.345,0 15.984,-1.41 15.984,-9.05 0,-9.285 -8.932,-9.522 -15.984,-9.522 h -5.758 z M 162.252,0 h 22.213 l 6.464,17.512 h 30.793 L 227.833,0 h 23.976 l -31.615,82.037 h -26.797 z m 54.299,33.025 h -20.568 l 10.578,32.088 h 0.235 z M 272.61,0 h 21.861 v 65.818 h 20.214 V 82.037 H 252.396 V 65.818 h 20.214 z m 56.637,0 h 21.859 v 82.037 h -21.859 z m 41.545,2.115 c 7.286,-2.349 16.806,-3.525 24.445,-3.525 18.218,0 36.081,5.76 36.081,27.031 0,29.619 -38.784,20.686 -38.784,33.967 0,7.17 9.167,7.641 14.691,7.641 6.23,0 12.575,-1.176 18.217,-3.762 l 1.41,16.924 c -5.524,1.88 -13.281,3.056 -21.155,3.056 -16.453,0 -35.728,-5.406 -35.728,-25.152 0,-29.852 38.784,-20.215 38.784,-35.494 0,-6.582 -6.582,-7.992 -13.516,-7.992 -9.05,0 -16.924,2.351 -22.565,5.406 z M 449.145,0 h 55.709 v 16.219 h -33.848 v 65.818 h -21.861 z m 66.661,0 h 22.213 l 6.464,17.512 h 30.793 L 581.387,0 h 23.976 l -31.615,82.037 h -26.797 z m 54.298,33.025 h -20.567 l 10.577,32.088 h 0.235 z M 631.737,0 h 27.031 L 686.74,82.037 H 664.292 L 645.958,17.629 h -0.235 l -18.217,64.408 h -23.271 z m 53.874,0 h 22.213 l 6.465,17.512 H 745.08 L 751.192,0 h 23.975 l -31.615,82.037 h -26.796 z m 54.298,33.025 h -20.568 l 10.578,32.088 h 0.235 z"
             style="fill:#231f20;fill-opacity:1;fill-rule:nonzero;stroke:none"
             id="path28" /></g></g></g></g></svg>
