<?xml version="1.0" encoding="UTF-8" standalone="no"?>
<svg
   xmlns:dc="http://purl.org/dc/elements/1.1/"
   xmlns:cc="http://creativecommons.org/ns#"
   xmlns:rdf="http://www.w3.org/1999/02/22-rdf-syntax-ns#"
   xmlns:svg="http://www.w3.org/2000/svg"
   xmlns="http://www.w3.org/2000/svg"
   version="1.1"
   id="svg2"
   xml:space="preserve"
   width="1412.9733"
   height="792.97601"
   viewBox="0 0 1412.9733 792.97601"><metadata
     id="metadata8"><rdf:RDF><cc:Work
         rdf:about=""><dc:format>image/svg+xml</dc:format><dc:type
           rdf:resource="http://purl.org/dc/dcmitype/StillImage" /></cc:Work></rdf:RDF></metadata><defs
     id="defs6"><clipPath
       clipPathUnits="userSpaceOnUse"
       id="clipPath24"><path
         d="M 0,594.732 H 1059.732 V 0 H 0 Z"
         id="path22" /></clipPath></defs><g
     id="g10"
     transform="matrix(1.3333333,0,0,-1.3333333,0,792.976)"><g
       id="g12"
       transform="translate(612.3838,339.104)"><path
         d="M 0,0 V 56.693 85.04 113.386 H -28.346 V 85.04 h -28.347 v 28.346 H -85.039 V 85.04 h -85.04 v 28.346 h -28.346 V 85.04 56.693 0 h 28.346 v 56.693 h 85.04 V 0 h 28.346 v 56.693 h 28.347 l 0,-56.693 z m -113.386,28.347 h -28.347 V 0 h 28.347 z"
         style="fill:#231f20;fill-opacity:1;fill-rule:nonzero;stroke:none"
         id="path14" /></g><path
       d="m 612.384,310.758 h -28.346 v -28.347 h 28.346 z m -85.039,-28.347 h 28.346 v 28.347 h -28.346 z m -56.694,0 h 28.347 v 28.347 h -28.347 z m -56.693,0 h 28.346 v 28.347 h -28.346 z"
       style="fill:#231f20;fill-opacity:1;fill-rule:nonzero;stroke:none"
       id="path16" /><g
       id="g18"><g
         id="g20"
         clip-path="url(#clipPath24)"><g
           id="g26"
           transform="translate(141.3652,143.6904)"><path
             d="m 0,0 h 34.553 c 14.691,0 31.968,4.113 31.968,23.741 0,9.99 -5.641,15.866 -16.572,18.099 v 0.235 c 9.168,3.056 14.456,8.816 14.456,19.157 0,14.104 -11.4,20.803 -26.678,20.803 H 0 Z m 21.86,34.788 h 6.699 c 7.522,0 16.102,-0.822 16.102,-9.754 0,-8.345 -8.345,-9.52 -16.337,-9.52 H 21.86 Z m 0,31.733 h 6.347 c 7.287,0 14.338,-0.705 14.338,-8.227 0,-6.934 -7.404,-8.696 -14.573,-8.696 H 21.86 Z M 84.242,0 h 21.86 v 32.438 h 4.584 c 8.11,0 10.93,-3.526 15.396,-17.628 L 130.783,0 h 22.801 l -7.992,22.33 c -4.114,9.99 -4.584,16.219 -11.635,18.1 v 0.235 c 10.577,2.468 15.748,9.755 15.748,20.686 0,14.102 -11.87,20.684 -26.443,20.684 h -39.02 z m 21.86,66.521 h 5.759 c 8.345,0 15.984,-1.41 15.984,-9.05 0,-9.283 -8.932,-9.52 -15.984,-9.52 h -5.759 z M 162.252,0 h 22.213 l 6.464,17.512 h 30.793 L 227.833,0 h 23.976 l -31.615,82.035 h -26.797 z m 54.299,33.025 h -20.568 l 10.578,32.086 h 0.235 z M 272.61,0 h 21.861 v 65.816 h 20.214 V 82.035 H 252.396 V 65.816 h 20.214 z m 56.636,0 h 21.859 v 82.035 h -21.859 z m 41.545,2.115 c 7.287,-2.349 16.807,-3.525 24.446,-3.525 18.217,0 36.08,5.76 36.08,27.031 0,29.617 -38.783,20.686 -38.783,33.966 0,7.169 9.167,7.64 14.691,7.64 6.229,0 12.575,-1.176 18.216,-3.762 l 1.411,16.924 c -5.524,1.882 -13.281,3.056 -21.156,3.056 -16.453,0 -35.728,-5.406 -35.728,-25.151 0,-29.852 38.785,-20.215 38.785,-35.494 0,-6.581 -6.582,-7.99 -13.516,-7.99 -9.05,0 -16.925,2.349 -22.565,5.405 z M 449.145,0 h 55.709 v 16.219 h -33.848 v 65.816 h -21.861 z m 66.661,0 h 22.213 l 6.463,17.512 h 30.793 L 581.387,0 h 23.975 l -31.614,82.035 h -26.797 z m 54.298,33.025 h -20.567 l 10.577,32.086 h 0.235 z M 631.737,0 h 27.031 l 27.971,82.035 H 664.292 L 645.958,17.629 h -0.235 l -18.217,64.406 h -23.272 z m 53.873,0 h 22.213 l 6.465,17.512 H 745.08 L 751.191,0 h 23.976 l -31.615,82.035 h -26.796 z m 54.299,33.025 h -20.567 l 10.577,32.086 h 0.234 z"
             style="fill:#231f20;fill-opacity:1;fill-rule:nonzero;stroke:none"
             id="path28" /></g></g></g></g></svg>
